solid OpenSCAD_Model
  facet normal -1 0 0
    outer loop
      vertex -5 36.5 17.75
      vertex -5 -7.5 16
      vertex -5 -39 16
    endloop
  endfacet
  facet normal -1 0 0
    outer loop
      vertex -5 36.5 17.75
      vertex -5 -39 16
      vertex -5 -36.5 17.75
    endloop
  endfacet
  facet normal -1 0 0
    outer loop
      vertex -5 -36.5 19.25
      vertex -5 -39 21
      vertex -5 -34 19.25
    endloop
  endfacet
  facet normal -1 0 0
    outer loop
      vertex -5 -39 16
      vertex -5 -39 21
      vertex -5 -36.5 19.25
    endloop
  endfacet
  facet normal -1 0 0
    outer loop
      vertex -5 -39 16
      vertex -5 -36.5 19.25
      vertex -5 -36.5 17.75
    endloop
  endfacet
  facet normal -1 0 0
    outer loop
      vertex -5 34 21
      vertex -5 36.5 19.25
      vertex -5 34 19.25
    endloop
  endfacet
  facet normal -1 0 0
    outer loop
      vertex -5 1.18239e-15 15.0614
      vertex -5 18.5969 -1.45994e-15
      vertex -5 15.0614 -1.18239e-15
    endloop
  endfacet
  facet normal -1 0 0
    outer loop
      vertex -5 1.18239e-15 15.0614
      vertex -5 7.5 11.0969
      vertex -5 18.5969 -1.45994e-15
    endloop
  endfacet
  facet normal -1 0 0
    outer loop
      vertex -5 36.5 19.25
      vertex -5 34 21
      vertex -5 39 21
    endloop
  endfacet
  facet normal -1 0 0
    outer loop
      vertex -5 36.5 19.25
      vertex -5 39 21
      vertex -5 36.5 17.75
    endloop
  endfacet
  facet normal -1 0 0
    outer loop
      vertex -5 36.5 17.75
      vertex -5 39 21
      vertex -5 39 16
    endloop
  endfacet
  facet normal -1 0 0
    outer loop
      vertex -5 -34 19.25
      vertex -5 -39 21
      vertex -5 -34 21
    endloop
  endfacet
  facet normal -1 0 0
    outer loop
      vertex -5 36.5 17.75
      vertex -5 39 16
      vertex -5 7.5 16
    endloop
  endfacet
  facet normal -1 0 0
    outer loop
      vertex -5 36.5 17.75
      vertex -5 7.5 16
      vertex -5 -7.5 16
    endloop
  endfacet
  facet normal -1 0 0
    outer loop
      vertex -5 -7.5 11.0969
      vertex -5 -15.0614 1.18239e-15
      vertex -5 -18.5969 1.45994e-15
    endloop
  endfacet
  facet normal -1 0 0
    outer loop
      vertex -5 18.5969 -1.45994e-15
      vertex -5 9.82914 -8.76777
      vertex -5 8.06137 -7
    endloop
  endfacet
  facet normal -1 0 0
    outer loop
      vertex -5 18.5969 -1.45994e-15
      vertex -5 8.06137 -7
      vertex -5 15.0614 -1.18239e-15
    endloop
  endfacet
  facet normal -1 0 0
    outer loop
      vertex -5 7.5 16
      vertex -5 7.5 11.0969
      vertex -5 1.18239e-15 15.0614
    endloop
  endfacet
  facet normal -1 0 0
    outer loop
      vertex -5 7.5 16
      vertex -5 1.18239e-15 15.0614
      vertex -5 -7.5 16
    endloop
  endfacet
  facet normal -1 0 0
    outer loop
      vertex -5 -15.0614 1.18239e-15
      vertex -5 -10.0614 -5
      vertex -5 -18.5969 1.45994e-15
    endloop
  endfacet
  facet normal -1 0 0
    outer loop
      vertex -5 -10.0614 -5
      vertex -5 -11.8291 -6.76777
      vertex -5 -18.5969 1.45994e-15
    endloop
  endfacet
  facet normal -1 0 0
    outer loop
      vertex -5 -15.0614 1.18239e-15
      vertex -5 -7.5 11.0969
      vertex -5 1.18239e-15 15.0614
    endloop
  endfacet
  facet normal -1 0 0
    outer loop
      vertex -5 -7.5 11.0969
      vertex -5 -7.5 16
      vertex -5 1.18239e-15 15.0614
    endloop
  endfacet
  facet normal 0 -1 0
    outer loop
      vertex -5 -39 21
      vertex -5 -39 16
      vertex 5 -39 16
    endloop
  endfacet
  facet normal 0 -1 0
    outer loop
      vertex 5 -39 21
      vertex -5 -39 21
      vertex 5 -39 16
    endloop
  endfacet
  facet normal 0 0 -1
    outer loop
      vertex -5 -39 16
      vertex -5 -7.5 16
      vertex 5 -39 16
    endloop
  endfacet
  facet normal 0 0 -1
    outer loop
      vertex 5 -39 16
      vertex -5 -7.5 16
      vertex 5 -7.5 16
    endloop
  endfacet
  facet normal 0 -1 0
    outer loop
      vertex -5 -7.5 16
      vertex -5 -7.5 11.0969
      vertex 5 -7.5 11.0969
    endloop
  endfacet
  facet normal 0 -1 0
    outer loop
      vertex 5 -7.5 16
      vertex -5 -7.5 16
      vertex 5 -7.5 11.0969
    endloop
  endfacet
  facet normal 0 -0.707107 0.707107
    outer loop
      vertex -5 -7.5 11.0969
      vertex -5 -18.5969 1.45994e-15
      vertex 5 -18.5969 1.45994e-15
    endloop
  endfacet
  facet normal 0 -0.707107 0.707107
    outer loop
      vertex 5 -7.5 11.0969
      vertex -5 -7.5 11.0969
      vertex 5 -18.5969 1.45994e-15
    endloop
  endfacet
  facet normal 0 -0.707107 -0.707107
    outer loop
      vertex 5 -18.5969 1.45994e-15
      vertex -5 -18.5969 1.45994e-15
      vertex -5 -11.8291 -6.76777
    endloop
  endfacet
  facet normal 0 -0.707107 -0.707107
    outer loop
      vertex 5 -11.8291 -6.76777
      vertex 5 -18.5969 1.45994e-15
      vertex -5 -11.8291 -6.76777
    endloop
  endfacet
  facet normal 0 0.707107 -0.707107
    outer loop
      vertex 5 -10.0614 -5
      vertex 5 -11.8291 -6.76777
      vertex -5 -10.0614 -5
    endloop
  endfacet
  facet normal 0 0.707107 -0.707107
    outer loop
      vertex -5 -10.0614 -5
      vertex 5 -11.8291 -6.76777
      vertex -5 -11.8291 -6.76777
    endloop
  endfacet
  facet normal 0 0.707107 0.707107
    outer loop
      vertex 5 -10.0614 -5
      vertex -5 -10.0614 -5
      vertex 5 -15.0614 1.18239e-15
    endloop
  endfacet
  facet normal 0 0.707107 0.707107
    outer loop
      vertex 5 -15.0614 1.18239e-15
      vertex -5 -10.0614 -5
      vertex -5 -15.0614 1.18239e-15
    endloop
  endfacet
  facet normal 0 0.707107 -0.707107
    outer loop
      vertex 5 1.18239e-15 15.0614
      vertex 5 -15.0614 1.18239e-15
      vertex -5 1.18239e-15 15.0614
    endloop
  endfacet
  facet normal 0 0.707107 -0.707107
    outer loop
      vertex -5 1.18239e-15 15.0614
      vertex 5 -15.0614 1.18239e-15
      vertex -5 -15.0614 1.18239e-15
    endloop
  endfacet
  facet normal 0 -0.707107 -0.707107
    outer loop
      vertex -5 15.0614 -1.18239e-15
      vertex 5 15.0614 -1.18239e-15
      vertex 5 1.18239e-15 15.0614
    endloop
  endfacet
  facet normal 0 -0.707107 -0.707107
    outer loop
      vertex -5 1.18239e-15 15.0614
      vertex -5 15.0614 -1.18239e-15
      vertex 5 1.18239e-15 15.0614
    endloop
  endfacet
  facet normal 0 -0.707107 0.707107
    outer loop
      vertex 5 8.06137 -7
      vertex 5 15.0614 -1.18239e-15
      vertex -5 15.0614 -1.18239e-15
    endloop
  endfacet
  facet normal 0 -0.707107 0.707107
    outer loop
      vertex -5 8.06137 -7
      vertex 5 8.06137 -7
      vertex -5 15.0614 -1.18239e-15
    endloop
  endfacet
  facet normal 0 -0.707107 -0.707107
    outer loop
      vertex -5 9.82914 -8.76777
      vertex 5 9.82914 -8.76777
      vertex 5 8.06137 -7
    endloop
  endfacet
  facet normal 0 -0.707107 -0.707107
    outer loop
      vertex -5 8.06137 -7
      vertex -5 9.82914 -8.76777
      vertex 5 8.06137 -7
    endloop
  endfacet
  facet normal 0 0.707107 -0.707107
    outer loop
      vertex -5 9.82914 -8.76777
      vertex -5 18.5969 -1.45994e-15
      vertex 5 9.82914 -8.76777
    endloop
  endfacet
  facet normal 0 0.707107 -0.707107
    outer loop
      vertex 5 9.82914 -8.76777
      vertex -5 18.5969 -1.45994e-15
      vertex 5 18.5969 -1.45994e-15
    endloop
  endfacet
  facet normal 0 0.707107 0.707107
    outer loop
      vertex -5 7.5 11.0969
      vertex 5 7.5 11.0969
      vertex -5 18.5969 -1.45994e-15
    endloop
  endfacet
  facet normal 0 0.707107 0.707107
    outer loop
      vertex -5 18.5969 -1.45994e-15
      vertex 5 7.5 11.0969
      vertex 5 18.5969 -1.45994e-15
    endloop
  endfacet
  facet normal 0 1 0
    outer loop
      vertex -5 7.5 11.0969
      vertex -5 7.5 16
      vertex 5 7.5 11.0969
    endloop
  endfacet
  facet normal 0 1 0
    outer loop
      vertex 5 7.5 11.0969
      vertex -5 7.5 16
      vertex 5 7.5 16
    endloop
  endfacet
  facet normal 0 0 -1
    outer loop
      vertex -5 7.5 16
      vertex -5 39 16
      vertex 5 7.5 16
    endloop
  endfacet
  facet normal 0 0 -1
    outer loop
      vertex 5 7.5 16
      vertex -5 39 16
      vertex 5 39 16
    endloop
  endfacet
  facet normal 0 1 0
    outer loop
      vertex -5 39 16
      vertex -5 39 21
      vertex 5 39 16
    endloop
  endfacet
  facet normal 0 1 0
    outer loop
      vertex 5 39 16
      vertex -5 39 21
      vertex 5 39 21
    endloop
  endfacet
  facet normal 0 0 1
    outer loop
      vertex -5 39 21
      vertex -5 34 21
      vertex 5 34 21
    endloop
  endfacet
  facet normal 0 0 1
    outer loop
      vertex 5 39 21
      vertex -5 39 21
      vertex 5 34 21
    endloop
  endfacet
  facet normal 0 -1 0
    outer loop
      vertex 5 34 19.25
      vertex 5 34 21
      vertex -5 34 21
    endloop
  endfacet
  facet normal 0 -1 0
    outer loop
      vertex -5 34 19.25
      vertex 5 34 19.25
      vertex -5 34 21
    endloop
  endfacet
  facet normal 0 0 -1
    outer loop
      vertex 5 36.5 19.25
      vertex 5 34 19.25
      vertex -5 36.5 19.25
    endloop
  endfacet
  facet normal 0 0 -1
    outer loop
      vertex -5 36.5 19.25
      vertex 5 34 19.25
      vertex -5 34 19.25
    endloop
  endfacet
  facet normal 0 -1 0
    outer loop
      vertex 5 36.5 17.75
      vertex 5 36.5 19.25
      vertex -5 36.5 19.25
    endloop
  endfacet
  facet normal 0 -1 0
    outer loop
      vertex -5 36.5 17.75
      vertex 5 36.5 17.75
      vertex -5 36.5 19.25
    endloop
  endfacet
  facet normal 0 0 1
    outer loop
      vertex 5 -36.5 17.75
      vertex 5 36.5 17.75
      vertex -5 36.5 17.75
    endloop
  endfacet
  facet normal 0 0 1
    outer loop
      vertex -5 -36.5 17.75
      vertex 5 -36.5 17.75
      vertex -5 36.5 17.75
    endloop
  endfacet
  facet normal 0 1 0
    outer loop
      vertex 5 -36.5 19.25
      vertex 5 -36.5 17.75
      vertex -5 -36.5 19.25
    endloop
  endfacet
  facet normal 0 1 0
    outer loop
      vertex -5 -36.5 19.25
      vertex 5 -36.5 17.75
      vertex -5 -36.5 17.75
    endloop
  endfacet
  facet normal 0 0 -1
    outer loop
      vertex 5 -34 19.25
      vertex 5 -36.5 19.25
      vertex -5 -34 19.25
    endloop
  endfacet
  facet normal 0 0 -1
    outer loop
      vertex -5 -34 19.25
      vertex 5 -36.5 19.25
      vertex -5 -36.5 19.25
    endloop
  endfacet
  facet normal 0 1 0
    outer loop
      vertex 5 -34 21
      vertex 5 -34 19.25
      vertex -5 -34 21
    endloop
  endfacet
  facet normal 0 1 0
    outer loop
      vertex -5 -34 21
      vertex 5 -34 19.25
      vertex -5 -34 19.25
    endloop
  endfacet
  facet normal 0 0 1
    outer loop
      vertex -5 -34 21
      vertex -5 -39 21
      vertex 5 -39 21
    endloop
  endfacet
  facet normal 0 0 1
    outer loop
      vertex 5 -34 21
      vertex -5 -34 21
      vertex 5 -39 21
    endloop
  endfacet
  facet normal 1 0 0
    outer loop
      vertex 5 -7.5 11.0969
      vertex 5 1.18239e-15 15.0614
      vertex 5 -7.5 16
    endloop
  endfacet
  facet normal 1 0 0
    outer loop
      vertex 5 -36.5 17.75
      vertex 5 -39 16
      vertex 5 -7.5 16
    endloop
  endfacet
  facet normal 1 0 0
    outer loop
      vertex 5 -15.0614 1.18239e-15
      vertex 5 1.18239e-15 15.0614
      vertex 5 -7.5 11.0969
    endloop
  endfacet
  facet normal 1 0 0
    outer loop
      vertex 5 8.06137 -7
      vertex 5 9.82914 -8.76777
      vertex 5 15.0614 -1.18239e-15
    endloop
  endfacet
  facet normal 1 0 0
    outer loop
      vertex 5 -18.5969 1.45994e-15
      vertex 5 -15.0614 1.18239e-15
      vertex 5 -7.5 11.0969
    endloop
  endfacet
  facet normal 1 0 0
    outer loop
      vertex 5 -18.5969 1.45994e-15
      vertex 5 -11.8291 -6.76777
      vertex 5 -15.0614 1.18239e-15
    endloop
  endfacet
  facet normal 1 0 0
    outer loop
      vertex 5 36.5 19.25
      vertex 5 36.5 17.75
      vertex 5 39 16
    endloop
  endfacet
  facet normal 1 0 0
    outer loop
      vertex 5 15.0614 -1.18239e-15
      vertex 5 18.5969 -1.45994e-15
      vertex 5 1.18239e-15 15.0614
    endloop
  endfacet
  facet normal 1 0 0
    outer loop
      vertex 5 7.5 11.0969
      vertex 5 7.5 16
      vertex 5 1.18239e-15 15.0614
    endloop
  endfacet
  facet normal 1 0 0
    outer loop
      vertex 5 9.82914 -8.76777
      vertex 5 18.5969 -1.45994e-15
      vertex 5 15.0614 -1.18239e-15
    endloop
  endfacet
  facet normal 1 0 0
    outer loop
      vertex 5 18.5969 -1.45994e-15
      vertex 5 7.5 11.0969
      vertex 5 1.18239e-15 15.0614
    endloop
  endfacet
  facet normal 1 0 0
    outer loop
      vertex 5 36.5 19.25
      vertex 5 39 21
      vertex 5 34 21
    endloop
  endfacet
  facet normal 1 0 0
    outer loop
      vertex 5 39 16
      vertex 5 39 21
      vertex 5 36.5 19.25
    endloop
  endfacet
  facet normal 1 0 0
    outer loop
      vertex 5 -39 21
      vertex 5 -39 16
      vertex 5 -36.5 17.75
    endloop
  endfacet
  facet normal 1 0 0
    outer loop
      vertex 5 -34 19.25
      vertex 5 -34 21
      vertex 5 -39 21
    endloop
  endfacet
  facet normal 1 0 0
    outer loop
      vertex 5 -39 21
      vertex 5 -36.5 17.75
      vertex 5 -36.5 19.25
    endloop
  endfacet
  facet normal 1 0 0
    outer loop
      vertex 5 -39 21
      vertex 5 -36.5 19.25
      vertex 5 -34 19.25
    endloop
  endfacet
  facet normal 1 0 0
    outer loop
      vertex 5 -10.0614 -5
      vertex 5 -15.0614 1.18239e-15
      vertex 5 -11.8291 -6.76777
    endloop
  endfacet
  facet normal 1 0 0
    outer loop
      vertex 5 34 19.25
      vertex 5 36.5 19.25
      vertex 5 34 21
    endloop
  endfacet
  facet normal 1 0 0
    outer loop
      vertex 5 36.5 17.75
      vertex 5 7.5 16
      vertex 5 39 16
    endloop
  endfacet
  facet normal 1 0 0
    outer loop
      vertex 5 7.5 16
      vertex 5 -7.5 16
      vertex 5 1.18239e-15 15.0614
    endloop
  endfacet
  facet normal 1 0 0
    outer loop
      vertex 5 36.5 17.75
      vertex 5 -7.5 16
      vertex 5 7.5 16
    endloop
  endfacet
  facet normal 1 0 0
    outer loop
      vertex 5 36.5 17.75
      vertex 5 -36.5 17.75
      vertex 5 -7.5 16
    endloop
  endfacet
endsolid OpenSCAD_Model
