solid OpenSCAD_Model
  facet normal -6.12323e-17 0 1
    outer loop
      vertex 18.25 -36.5 10
      vertex 15 -39 10
      vertex 20 -39 10
    endloop
  endfacet
  facet normal -6.12323e-17 0 1
    outer loop
      vertex 18.25 34 10
      vertex 20 34 10
      vertex 18.25 36.5 10
    endloop
  endfacet
  facet normal -6.12323e-17 0 1
    outer loop
      vertex 18.25 -34 10
      vertex 18.25 -36.5 10
      vertex 20 -39 10
    endloop
  endfacet
  facet normal -6.12323e-17 0 1
    outer loop
      vertex 16.75 -36.5 10
      vertex 15 -39 10
      vertex 18.25 -36.5 10
    endloop
  endfacet
  facet normal -6.12323e-17 0 1
    outer loop
      vertex 15.0614 1.18239e-15 10
      vertex 15 -7.5 10
      vertex 16.75 36.5 10
    endloop
  endfacet
  facet normal -6.12323e-17 0 1
    outer loop
      vertex 15.0614 1.18239e-15 10
      vertex 10 -6.47559 10
      vertex 15 -7.5 10
    endloop
  endfacet
  facet normal -6.12323e-17 0 1
    outer loop
      vertex 20 39 10
      vertex 16.75 36.5 10
      vertex 18.25 36.5 10
    endloop
  endfacet
  facet normal -6.12323e-17 0 1
    outer loop
      vertex 9.87248e-16 -16.4756 10
      vertex 10 -6.47559 10
      vertex 8.76226e-16 -15.0614 10
    endloop
  endfacet
  facet normal -6.12323e-17 0 1
    outer loop
      vertex 20 39 10
      vertex 18.25 36.5 10
      vertex 20 34 10
    endloop
  endfacet
  facet normal -6.12323e-17 0 1
    outer loop
      vertex 15 39 10
      vertex 16.75 36.5 10
      vertex 20 39 10
    endloop
  endfacet
  facet normal -6.12323e-17 0 1
    outer loop
      vertex 15 39 10
      vertex 15 7.5 10
      vertex 16.75 36.5 10
    endloop
  endfacet
  facet normal -6.12323e-17 0 1
    outer loop
      vertex 20 -34 10
      vertex 18.25 -34 10
      vertex 20 -39 10
    endloop
  endfacet
  facet normal -6.12323e-17 0 1
    outer loop
      vertex 9.87248e-16 -16.4756 10
      vertex 8.76226e-16 -15.0614 10
      vertex -1 -14.0614 10
    endloop
  endfacet
  facet normal -6.12323e-17 0 1
    outer loop
      vertex -1.59957e-15 16.4756 10
      vertex -6.70711 9.76848 10
      vertex -6 9.06137 10
    endloop
  endfacet
  facet normal -6.12323e-17 0 1
    outer loop
      vertex -1.59957e-15 16.4756 10
      vertex -6 9.06137 10
      vertex -1.48855e-15 15.0614 10
    endloop
  endfacet
  facet normal -6.12323e-17 0 1
    outer loop
      vertex 15 7.5 10
      vertex 15.0614 1.18239e-15 10
      vertex 16.75 36.5 10
    endloop
  endfacet
  facet normal -6.12323e-17 0 1
    outer loop
      vertex -1 -14.0614 10
      vertex -1.70711 -14.7685 10
      vertex 9.87248e-16 -16.4756 10
    endloop
  endfacet
  facet normal -6.12323e-17 0 1
    outer loop
      vertex 16.75 -36.5 10
      vertex 15 -7.5 10
      vertex 15 -39 10
    endloop
  endfacet
  facet normal -6.12323e-17 0 1
    outer loop
      vertex 16.75 -36.5 10
      vertex 16.75 36.5 10
      vertex 15 -7.5 10
    endloop
  endfacet
  facet normal -6.12323e-17 0 1
    outer loop
      vertex 15.0614 1.18239e-15 10
      vertex 8.76226e-16 -15.0614 10
      vertex 10 -6.47559 10
    endloop
  endfacet
  facet normal -6.12323e-17 0 1
    outer loop
      vertex 10 -7.5 10
      vertex 15 -7.5 10
      vertex 10 -6.47559 10
    endloop
  endfacet
  facet normal -6.12323e-17 0 1
    outer loop
      vertex -1.48855e-15 15.0614 10
      vertex 10 6.47559 10
      vertex -1.59957e-15 16.4756 10
    endloop
  endfacet
  facet normal -6.12323e-17 0 1
    outer loop
      vertex 10 6.47559 10
      vertex 15 7.5 10
      vertex 10 7.5 10
    endloop
  endfacet
  facet normal -6.12323e-17 0 1
    outer loop
      vertex 10 6.47559 10
      vertex 15.0614 1.18239e-15 10
      vertex 15 7.5 10
    endloop
  endfacet
  facet normal -6.12323e-17 0 1
    outer loop
      vertex -1.48855e-15 15.0614 10
      vertex 15.0614 1.18239e-15 10
      vertex 10 6.47559 10
    endloop
  endfacet
  facet normal 0 -1 0
    outer loop
      vertex 20 -39 10
      vertex 15 -39 10
      vertex 15 -39 9.18485e-16
    endloop
  endfacet
  facet normal 0 -1 0
    outer loop
      vertex 20 -39 1.22465e-15
      vertex 20 -39 10
      vertex 15 -39 9.18485e-16
    endloop
  endfacet
  facet normal -1 0 -6.12323e-17
    outer loop
      vertex 15 -39 10
      vertex 15 -7.5 10
      vertex 15 -39 9.18485e-16
    endloop
  endfacet
  facet normal -1 0 -6.12323e-17
    outer loop
      vertex 15 -39 9.18485e-16
      vertex 15 -7.5 10
      vertex 15 -7.5 9.18485e-16
    endloop
  endfacet
  facet normal 0 -1 0
    outer loop
      vertex 15 -7.5 10
      vertex 10 -7.5 10
      vertex 10 -7.5 6.12323e-16
    endloop
  endfacet
  facet normal 0 -1 0
    outer loop
      vertex 15 -7.5 9.18485e-16
      vertex 15 -7.5 10
      vertex 10 -7.5 6.12323e-16
    endloop
  endfacet
  facet normal -1 0 -6.12323e-17
    outer loop
      vertex 10 -7.5 10
      vertex 10 -6.47559 10
      vertex 10 -7.5 6.12323e-16
    endloop
  endfacet
  facet normal -1 0 -6.12323e-17
    outer loop
      vertex 10 -7.5 6.12323e-16
      vertex 10 -6.47559 10
      vertex 10 -6.47559 6.12323e-16
    endloop
  endfacet
  facet normal 0.707107 -0.707107 4.32978e-17
    outer loop
      vertex 10 -6.47559 10
      vertex 9.87248e-16 -16.4756 10
      vertex 1.59957e-15 -16.4756 7.91985e-32
    endloop
  endfacet
  facet normal 0.707107 -0.707107 4.32978e-17
    outer loop
      vertex 10 -6.47559 6.12323e-16
      vertex 10 -6.47559 10
      vertex 1.59957e-15 -16.4756 7.91985e-32
    endloop
  endfacet
  facet normal -0.707107 -0.707107 -4.32978e-17
    outer loop
      vertex 1.59957e-15 -16.4756 7.91985e-32
      vertex 9.87248e-16 -16.4756 10
      vertex -1.70711 -14.7685 10
    endloop
  endfacet
  facet normal -0.707107 -0.707107 -4.32978e-17
    outer loop
      vertex -1.70711 -14.7685 -1.0453e-16
      vertex 1.59957e-15 -16.4756 7.91985e-32
      vertex -1.70711 -14.7685 10
    endloop
  endfacet
  facet normal -0.707107 0.707107 -4.32978e-17
    outer loop
      vertex -1 -14.0614 -6.12323e-17
      vertex -1.70711 -14.7685 -1.0453e-16
      vertex -1 -14.0614 10
    endloop
  endfacet
  facet normal -0.707107 0.707107 -4.32978e-17
    outer loop
      vertex -1 -14.0614 10
      vertex -1.70711 -14.7685 -1.0453e-16
      vertex -1.70711 -14.7685 10
    endloop
  endfacet
  facet normal 0.707107 0.707107 4.32978e-17
    outer loop
      vertex -1 -14.0614 -6.12323e-17
      vertex -1 -14.0614 10
      vertex 1.48855e-15 -15.0614 7.24004e-32
    endloop
  endfacet
  facet normal 0.707107 0.707107 4.32978e-17
    outer loop
      vertex 1.48855e-15 -15.0614 7.24004e-32
      vertex -1 -14.0614 10
      vertex 8.76226e-16 -15.0614 10
    endloop
  endfacet
  facet normal -0.707107 0.707107 -4.32978e-17
    outer loop
      vertex 15.0614 1.18239e-15 9.22243e-16
      vertex 1.48855e-15 -15.0614 7.24004e-32
      vertex 15.0614 1.18239e-15 10
    endloop
  endfacet
  facet normal -0.707107 0.707107 -4.32978e-17
    outer loop
      vertex 15.0614 1.18239e-15 10
      vertex 1.48855e-15 -15.0614 7.24004e-32
      vertex 8.76226e-16 -15.0614 10
    endloop
  endfacet
  facet normal -0.707107 -0.707107 -4.32978e-17
    outer loop
      vertex -1.48855e-15 15.0614 10
      vertex -8.76226e-16 15.0614 -7.24004e-32
      vertex 15.0614 1.18239e-15 9.22243e-16
    endloop
  endfacet
  facet normal -0.707107 -0.707107 -4.32978e-17
    outer loop
      vertex 15.0614 1.18239e-15 10
      vertex -1.48855e-15 15.0614 10
      vertex 15.0614 1.18239e-15 9.22243e-16
    endloop
  endfacet
  facet normal 0.707107 -0.707107 4.32978e-17
    outer loop
      vertex -6 9.06137 -3.67394e-16
      vertex -8.76226e-16 15.0614 -7.24004e-32
      vertex -1.48855e-15 15.0614 10
    endloop
  endfacet
  facet normal 0.707107 -0.707107 4.32978e-17
    outer loop
      vertex -6 9.06137 10
      vertex -6 9.06137 -3.67394e-16
      vertex -1.48855e-15 15.0614 10
    endloop
  endfacet
  facet normal -0.707107 -0.707107 -4.32978e-17
    outer loop
      vertex -6.70711 9.76848 10
      vertex -6.70711 9.76848 -4.10692e-16
      vertex -6 9.06137 -3.67394e-16
    endloop
  endfacet
  facet normal -0.707107 -0.707107 -4.32978e-17
    outer loop
      vertex -6 9.06137 10
      vertex -6.70711 9.76848 10
      vertex -6 9.06137 -3.67394e-16
    endloop
  endfacet
  facet normal -0.707107 0.707107 -4.32978e-17
    outer loop
      vertex -6.70711 9.76848 10
      vertex -1.59957e-15 16.4756 10
      vertex -6.70711 9.76848 -4.10692e-16
    endloop
  endfacet
  facet normal -0.707107 0.707107 -4.32978e-17
    outer loop
      vertex -6.70711 9.76848 -4.10692e-16
      vertex -1.59957e-15 16.4756 10
      vertex -9.87248e-16 16.4756 -7.91985e-32
    endloop
  endfacet
  facet normal 0.707107 0.707107 4.32978e-17
    outer loop
      vertex 10 6.47559 10
      vertex 10 6.47559 6.12323e-16
      vertex -1.59957e-15 16.4756 10
    endloop
  endfacet
  facet normal 0.707107 0.707107 4.32978e-17
    outer loop
      vertex -1.59957e-15 16.4756 10
      vertex 10 6.47559 6.12323e-16
      vertex -9.87248e-16 16.4756 -7.91985e-32
    endloop
  endfacet
  facet normal -1 0 -6.12323e-17
    outer loop
      vertex 10 6.47559 10
      vertex 10 7.5 10
      vertex 10 6.47559 6.12323e-16
    endloop
  endfacet
  facet normal -1 0 -6.12323e-17
    outer loop
      vertex 10 6.47559 6.12323e-16
      vertex 10 7.5 10
      vertex 10 7.5 6.12323e-16
    endloop
  endfacet
  facet normal 0 1 0
    outer loop
      vertex 10 7.5 10
      vertex 15 7.5 10
      vertex 10 7.5 6.12323e-16
    endloop
  endfacet
  facet normal 0 1 0
    outer loop
      vertex 10 7.5 6.12323e-16
      vertex 15 7.5 10
      vertex 15 7.5 9.18485e-16
    endloop
  endfacet
  facet normal -1 0 -6.12323e-17
    outer loop
      vertex 15 7.5 10
      vertex 15 39 10
      vertex 15 7.5 9.18485e-16
    endloop
  endfacet
  facet normal -1 0 -6.12323e-17
    outer loop
      vertex 15 7.5 9.18485e-16
      vertex 15 39 10
      vertex 15 39 9.18485e-16
    endloop
  endfacet
  facet normal 0 1 0
    outer loop
      vertex 15 39 10
      vertex 20 39 10
      vertex 15 39 9.18485e-16
    endloop
  endfacet
  facet normal 0 1 0
    outer loop
      vertex 15 39 9.18485e-16
      vertex 20 39 10
      vertex 20 39 1.22465e-15
    endloop
  endfacet
  facet normal 1 0 6.12323e-17
    outer loop
      vertex 20 39 10
      vertex 20 34 10
      vertex 20 34 1.22465e-15
    endloop
  endfacet
  facet normal 1 0 6.12323e-17
    outer loop
      vertex 20 39 1.22465e-15
      vertex 20 39 10
      vertex 20 34 1.22465e-15
    endloop
  endfacet
  facet normal 0 -1 0
    outer loop
      vertex 18.25 34 1.11749e-15
      vertex 20 34 1.22465e-15
      vertex 20 34 10
    endloop
  endfacet
  facet normal 0 -1 0
    outer loop
      vertex 18.25 34 10
      vertex 18.25 34 1.11749e-15
      vertex 20 34 10
    endloop
  endfacet
  facet normal -1 0 -6.12323e-17
    outer loop
      vertex 18.25 36.5 1.11749e-15
      vertex 18.25 34 1.11749e-15
      vertex 18.25 36.5 10
    endloop
  endfacet
  facet normal -1 0 -6.12323e-17
    outer loop
      vertex 18.25 36.5 10
      vertex 18.25 34 1.11749e-15
      vertex 18.25 34 10
    endloop
  endfacet
  facet normal 0 -1 0
    outer loop
      vertex 16.75 36.5 1.02564e-15
      vertex 18.25 36.5 1.11749e-15
      vertex 18.25 36.5 10
    endloop
  endfacet
  facet normal 0 -1 0
    outer loop
      vertex 16.75 36.5 10
      vertex 16.75 36.5 1.02564e-15
      vertex 18.25 36.5 10
    endloop
  endfacet
  facet normal 1 0 6.12323e-17
    outer loop
      vertex 16.75 -36.5 1.02564e-15
      vertex 16.75 36.5 1.02564e-15
      vertex 16.75 36.5 10
    endloop
  endfacet
  facet normal 1 0 6.12323e-17
    outer loop
      vertex 16.75 -36.5 10
      vertex 16.75 -36.5 1.02564e-15
      vertex 16.75 36.5 10
    endloop
  endfacet
  facet normal 0 1 0
    outer loop
      vertex 18.25 -36.5 1.11749e-15
      vertex 16.75 -36.5 1.02564e-15
      vertex 18.25 -36.5 10
    endloop
  endfacet
  facet normal 0 1 0
    outer loop
      vertex 18.25 -36.5 10
      vertex 16.75 -36.5 1.02564e-15
      vertex 16.75 -36.5 10
    endloop
  endfacet
  facet normal -1 0 -6.12323e-17
    outer loop
      vertex 18.25 -34 1.11749e-15
      vertex 18.25 -36.5 1.11749e-15
      vertex 18.25 -34 10
    endloop
  endfacet
  facet normal -1 0 -6.12323e-17
    outer loop
      vertex 18.25 -34 10
      vertex 18.25 -36.5 1.11749e-15
      vertex 18.25 -36.5 10
    endloop
  endfacet
  facet normal 0 1 0
    outer loop
      vertex 20 -34 1.22465e-15
      vertex 18.25 -34 1.11749e-15
      vertex 20 -34 10
    endloop
  endfacet
  facet normal 0 1 0
    outer loop
      vertex 20 -34 10
      vertex 18.25 -34 1.11749e-15
      vertex 18.25 -34 10
    endloop
  endfacet
  facet normal 1 0 6.12323e-17
    outer loop
      vertex 20 -34 10
      vertex 20 -39 10
      vertex 20 -39 1.22465e-15
    endloop
  endfacet
  facet normal 1 0 6.12323e-17
    outer loop
      vertex 20 -34 1.22465e-15
      vertex 20 -34 10
      vertex 20 -39 1.22465e-15
    endloop
  endfacet
  facet normal 6.12323e-17 0 -1
    outer loop
      vertex 10 -6.47559 6.12323e-16
      vertex 15 -7.5 9.18485e-16
      vertex 10 -7.5 6.12323e-16
    endloop
  endfacet
  facet normal 6.12323e-17 0 -1
    outer loop
      vertex 1.48855e-15 -15.0614 7.24004e-32
      vertex 10 -6.47559 6.12323e-16
      vertex 1.59957e-15 -16.4756 7.91985e-32
    endloop
  endfacet
  facet normal 6.12323e-17 0 -1
    outer loop
      vertex 18.25 36.5 1.11749e-15
      vertex 20 34 1.22465e-15
      vertex 18.25 34 1.11749e-15
    endloop
  endfacet
  facet normal 6.12323e-17 0 -1
    outer loop
      vertex 15.0614 1.18239e-15 9.22243e-16
      vertex 10 -6.47559 6.12323e-16
      vertex 1.48855e-15 -15.0614 7.24004e-32
    endloop
  endfacet
  facet normal 6.12323e-17 0 -1
    outer loop
      vertex -1.70711 -14.7685 -1.0453e-16
      vertex 1.48855e-15 -15.0614 7.24004e-32
      vertex 1.59957e-15 -16.4756 7.91985e-32
    endloop
  endfacet
  facet normal 6.12323e-17 0 -1
    outer loop
      vertex 15 -7.5 9.18485e-16
      vertex 10 -6.47559 6.12323e-16
      vertex 15.0614 1.18239e-15 9.22243e-16
    endloop
  endfacet
  facet normal 6.12323e-17 0 -1
    outer loop
      vertex 10 6.47559 6.12323e-16
      vertex 15.0614 1.18239e-15 9.22243e-16
      vertex -9.87248e-16 16.4756 -7.91985e-32
    endloop
  endfacet
  facet normal 6.12323e-17 0 -1
    outer loop
      vertex -9.87248e-16 16.4756 -7.91985e-32
      vertex -8.76226e-16 15.0614 -7.24004e-32
      vertex -6.70711 9.76848 -4.10692e-16
    endloop
  endfacet
  facet normal 6.12323e-17 0 -1
    outer loop
      vertex -8.76226e-16 15.0614 -7.24004e-32
      vertex -6 9.06137 -3.67394e-16
      vertex -6.70711 9.76848 -4.10692e-16
    endloop
  endfacet
  facet normal 6.12323e-17 0 -1
    outer loop
      vertex 15.0614 1.18239e-15 9.22243e-16
      vertex -8.76226e-16 15.0614 -7.24004e-32
      vertex -9.87248e-16 16.4756 -7.91985e-32
    endloop
  endfacet
  facet normal 6.12323e-17 0 -1
    outer loop
      vertex 15 7.5 9.18485e-16
      vertex 15.0614 1.18239e-15 9.22243e-16
      vertex 10 7.5 6.12323e-16
    endloop
  endfacet
  facet normal 6.12323e-17 0 -1
    outer loop
      vertex 15.0614 1.18239e-15 9.22243e-16
      vertex 10 6.47559 6.12323e-16
      vertex 10 7.5 6.12323e-16
    endloop
  endfacet
  facet normal 6.12323e-17 0 -1
    outer loop
      vertex 18.25 36.5 1.11749e-15
      vertex 15 39 9.18485e-16
      vertex 20 39 1.22465e-15
    endloop
  endfacet
  facet normal 6.12323e-17 0 -1
    outer loop
      vertex 16.75 -36.5 1.02564e-15
      vertex 15.0614 1.18239e-15 9.22243e-16
      vertex 15 7.5 9.18485e-16
    endloop
  endfacet
  facet normal 6.12323e-17 0 -1
    outer loop
      vertex 16.75 -36.5 1.02564e-15
      vertex 15 -7.5 9.18485e-16
      vertex 15.0614 1.18239e-15 9.22243e-16
    endloop
  endfacet
  facet normal 6.12323e-17 0 -1
    outer loop
      vertex 20 34 1.22465e-15
      vertex 18.25 36.5 1.11749e-15
      vertex 20 39 1.22465e-15
    endloop
  endfacet
  facet normal 6.12323e-17 0 -1
    outer loop
      vertex 16.75 -36.5 1.02564e-15
      vertex 15 7.5 9.18485e-16
      vertex 15 39 9.18485e-16
    endloop
  endfacet
  facet normal 6.12323e-17 0 -1
    outer loop
      vertex 15 -39 9.18485e-16
      vertex 15 -7.5 9.18485e-16
      vertex 16.75 -36.5 1.02564e-15
    endloop
  endfacet
  facet normal 6.12323e-17 0 -1
    outer loop
      vertex 15 -39 9.18485e-16
      vertex 16.75 -36.5 1.02564e-15
      vertex 20 -39 1.22465e-15
    endloop
  endfacet
  facet normal 6.12323e-17 0 -1
    outer loop
      vertex 20 -34 1.22465e-15
      vertex 20 -39 1.22465e-15
      vertex 18.25 -34 1.11749e-15
    endloop
  endfacet
  facet normal 6.12323e-17 0 -1
    outer loop
      vertex 16.75 -36.5 1.02564e-15
      vertex 18.25 -36.5 1.11749e-15
      vertex 20 -39 1.22465e-15
    endloop
  endfacet
  facet normal 6.12323e-17 0 -1
    outer loop
      vertex 18.25 -36.5 1.11749e-15
      vertex 18.25 -34 1.11749e-15
      vertex 20 -39 1.22465e-15
    endloop
  endfacet
  facet normal 6.12323e-17 0 -1
    outer loop
      vertex 1.48855e-15 -15.0614 7.24004e-32
      vertex -1.70711 -14.7685 -1.0453e-16
      vertex -1 -14.0614 -6.12323e-17
    endloop
  endfacet
  facet normal 6.12323e-17 0 -1
    outer loop
      vertex 16.75 36.5 1.02564e-15
      vertex 15 39 9.18485e-16
      vertex 18.25 36.5 1.11749e-15
    endloop
  endfacet
  facet normal 6.12323e-17 0 -1
    outer loop
      vertex 16.75 -36.5 1.02564e-15
      vertex 15 39 9.18485e-16
      vertex 16.75 36.5 1.02564e-15
    endloop
  endfacet
endsolid OpenSCAD_Model
