solid OpenSCAD_Model
  facet normal -6.12323e-17 0 1
    outer loop
      vertex 19.25 -36.5 10
      vertex 16 -39 10
      vertex 21 -39 10
    endloop
  endfacet
  facet normal -6.12323e-17 0 1
    outer loop
      vertex 19.25 34 10
      vertex 21 34 10
      vertex 19.25 36.5 10
    endloop
  endfacet
  facet normal -6.12323e-17 0 1
    outer loop
      vertex 19.25 -34 10
      vertex 19.25 -36.5 10
      vertex 21 -39 10
    endloop
  endfacet
  facet normal -6.12323e-17 0 1
    outer loop
      vertex 17.75 -36.5 10
      vertex 16 -39 10
      vertex 19.25 -36.5 10
    endloop
  endfacet
  facet normal -6.12323e-17 0 1
    outer loop
      vertex -1.48855e-15 15.0614 10
      vertex 11.0969 7.5 10
      vertex -1.7661e-15 18.5969 10
    endloop
  endfacet
  facet normal -6.12323e-17 0 1
    outer loop
      vertex 16 7.5 10
      vertex 16 -7.5 10
      vertex 17.75 36.5 10
    endloop
  endfacet
  facet normal -6.12323e-17 0 1
    outer loop
      vertex 15.0614 1.18239e-15 10
      vertex 11.0969 -7.5 10
      vertex 16 -7.5 10
    endloop
  endfacet
  facet normal -6.12323e-17 0 1
    outer loop
      vertex 21 39 10
      vertex 17.75 36.5 10
      vertex 19.25 36.5 10
    endloop
  endfacet
  facet normal -6.12323e-17 0 1
    outer loop
      vertex 21 39 10
      vertex 19.25 36.5 10
      vertex 21 34 10
    endloop
  endfacet
  facet normal -6.12323e-17 0 1
    outer loop
      vertex 16 39 10
      vertex 17.75 36.5 10
      vertex 21 39 10
    endloop
  endfacet
  facet normal -6.12323e-17 0 1
    outer loop
      vertex 15.0614 1.18239e-15 10
      vertex 16 -7.5 10
      vertex 16 7.5 10
    endloop
  endfacet
  facet normal -6.12323e-17 0 1
    outer loop
      vertex 16 39 10
      vertex 16 7.5 10
      vertex 17.75 36.5 10
    endloop
  endfacet
  facet normal -6.12323e-17 0 1
    outer loop
      vertex 1.15378e-15 -18.5969 10
      vertex 8.76226e-16 -15.0614 10
      vertex -5 -10.0614 10
    endloop
  endfacet
  facet normal -6.12323e-17 0 1
    outer loop
      vertex 1.15378e-15 -18.5969 10
      vertex 11.0969 -7.5 10
      vertex 8.76226e-16 -15.0614 10
    endloop
  endfacet
  facet normal -6.12323e-17 0 1
    outer loop
      vertex -1.7661e-15 18.5969 10
      vertex -8.76777 9.82914 10
      vertex -7 8.06137 10
    endloop
  endfacet
  facet normal -6.12323e-17 0 1
    outer loop
      vertex 15.0614 1.18239e-15 10
      vertex 8.76226e-16 -15.0614 10
      vertex 11.0969 -7.5 10
    endloop
  endfacet
  facet normal -6.12323e-17 0 1
    outer loop
      vertex -1.7661e-15 18.5969 10
      vertex -7 8.06137 10
      vertex -1.48855e-15 15.0614 10
    endloop
  endfacet
  facet normal -6.12323e-17 0 1
    outer loop
      vertex 11.0969 7.5 10
      vertex 15.0614 1.18239e-15 10
      vertex 16 7.5 10
    endloop
  endfacet
  facet normal -6.12323e-17 0 1
    outer loop
      vertex -5 -10.0614 10
      vertex -6.76777 -11.8291 10
      vertex 1.15378e-15 -18.5969 10
    endloop
  endfacet
  facet normal -6.12323e-17 0 1
    outer loop
      vertex 21 -34 10
      vertex 19.25 -34 10
      vertex 21 -39 10
    endloop
  endfacet
  facet normal -6.12323e-17 0 1
    outer loop
      vertex 17.75 -36.5 10
      vertex 16 -7.5 10
      vertex 16 -39 10
    endloop
  endfacet
  facet normal -6.12323e-17 0 1
    outer loop
      vertex 17.75 -36.5 10
      vertex 17.75 36.5 10
      vertex 16 -7.5 10
    endloop
  endfacet
  facet normal -6.12323e-17 0 1
    outer loop
      vertex -1.48855e-15 15.0614 10
      vertex 15.0614 1.18239e-15 10
      vertex 11.0969 7.5 10
    endloop
  endfacet
  facet normal 0 -1 0
    outer loop
      vertex 21 -39 10
      vertex 16 -39 10
      vertex 16 -39 9.79717e-16
    endloop
  endfacet
  facet normal 0 -1 0
    outer loop
      vertex 21 -39 1.28588e-15
      vertex 21 -39 10
      vertex 16 -39 9.79717e-16
    endloop
  endfacet
  facet normal -1 0 -6.12323e-17
    outer loop
      vertex 16 -39 10
      vertex 16 -7.5 10
      vertex 16 -39 9.79717e-16
    endloop
  endfacet
  facet normal -1 0 -6.12323e-17
    outer loop
      vertex 16 -39 9.79717e-16
      vertex 16 -7.5 10
      vertex 16 -7.5 9.79717e-16
    endloop
  endfacet
  facet normal 0 -1 0
    outer loop
      vertex 16 -7.5 10
      vertex 11.0969 -7.5 10
      vertex 11.0969 -7.5 6.7949e-16
    endloop
  endfacet
  facet normal 0 -1 0
    outer loop
      vertex 16 -7.5 9.79717e-16
      vertex 16 -7.5 10
      vertex 11.0969 -7.5 6.7949e-16
    endloop
  endfacet
  facet normal 0.707107 -0.707107 4.32978e-17
    outer loop
      vertex 11.0969 -7.5 10
      vertex 1.15378e-15 -18.5969 10
      vertex 1.7661e-15 -18.5969 8.93957e-32
    endloop
  endfacet
  facet normal 0.707107 -0.707107 4.32978e-17
    outer loop
      vertex 11.0969 -7.5 6.7949e-16
      vertex 11.0969 -7.5 10
      vertex 1.7661e-15 -18.5969 8.93957e-32
    endloop
  endfacet
  facet normal -0.707107 -0.707107 -4.32978e-17
    outer loop
      vertex 1.7661e-15 -18.5969 8.93957e-32
      vertex 1.15378e-15 -18.5969 10
      vertex -6.76777 -11.8291 10
    endloop
  endfacet
  facet normal -0.707107 -0.707107 -4.32978e-17
    outer loop
      vertex -6.76777 -11.8291 -4.14406e-16
      vertex 1.7661e-15 -18.5969 8.93957e-32
      vertex -6.76777 -11.8291 10
    endloop
  endfacet
  facet normal -0.707107 0.707107 -4.32978e-17
    outer loop
      vertex -5 -10.0614 -3.06162e-16
      vertex -6.76777 -11.8291 -4.14406e-16
      vertex -5 -10.0614 10
    endloop
  endfacet
  facet normal -0.707107 0.707107 -4.32978e-17
    outer loop
      vertex -5 -10.0614 10
      vertex -6.76777 -11.8291 -4.14406e-16
      vertex -6.76777 -11.8291 10
    endloop
  endfacet
  facet normal 0.707107 0.707107 4.32978e-17
    outer loop
      vertex -5 -10.0614 -3.06162e-16
      vertex -5 -10.0614 10
      vertex 1.48855e-15 -15.0614 7.24004e-32
    endloop
  endfacet
  facet normal 0.707107 0.707107 4.32978e-17
    outer loop
      vertex 1.48855e-15 -15.0614 7.24004e-32
      vertex -5 -10.0614 10
      vertex 8.76226e-16 -15.0614 10
    endloop
  endfacet
  facet normal -0.707107 0.707107 -4.32978e-17
    outer loop
      vertex 15.0614 1.18239e-15 9.22243e-16
      vertex 1.48855e-15 -15.0614 7.24004e-32
      vertex 15.0614 1.18239e-15 10
    endloop
  endfacet
  facet normal -0.707107 0.707107 -4.32978e-17
    outer loop
      vertex 15.0614 1.18239e-15 10
      vertex 1.48855e-15 -15.0614 7.24004e-32
      vertex 8.76226e-16 -15.0614 10
    endloop
  endfacet
  facet normal -0.707107 -0.707107 -4.32978e-17
    outer loop
      vertex -1.48855e-15 15.0614 10
      vertex -8.76226e-16 15.0614 -7.24004e-32
      vertex 15.0614 1.18239e-15 9.22243e-16
    endloop
  endfacet
  facet normal -0.707107 -0.707107 -4.32978e-17
    outer loop
      vertex 15.0614 1.18239e-15 10
      vertex -1.48855e-15 15.0614 10
      vertex 15.0614 1.18239e-15 9.22243e-16
    endloop
  endfacet
  facet normal 0.707107 -0.707107 4.32978e-17
    outer loop
      vertex -7 8.06137 -4.28626e-16
      vertex -8.76226e-16 15.0614 -7.24004e-32
      vertex -1.48855e-15 15.0614 10
    endloop
  endfacet
  facet normal 0.707107 -0.707107 4.32978e-17
    outer loop
      vertex -7 8.06137 10
      vertex -7 8.06137 -4.28626e-16
      vertex -1.48855e-15 15.0614 10
    endloop
  endfacet
  facet normal -0.707107 -0.707107 -4.32978e-17
    outer loop
      vertex -8.76777 9.82914 10
      vertex -8.76777 9.82914 -5.36871e-16
      vertex -7 8.06137 -4.28626e-16
    endloop
  endfacet
  facet normal -0.707107 -0.707107 -4.32978e-17
    outer loop
      vertex -7 8.06137 10
      vertex -8.76777 9.82914 10
      vertex -7 8.06137 -4.28626e-16
    endloop
  endfacet
  facet normal -0.707107 0.707107 -4.32978e-17
    outer loop
      vertex -8.76777 9.82914 10
      vertex -1.7661e-15 18.5969 10
      vertex -8.76777 9.82914 -5.36871e-16
    endloop
  endfacet
  facet normal -0.707107 0.707107 -4.32978e-17
    outer loop
      vertex -8.76777 9.82914 -5.36871e-16
      vertex -1.7661e-15 18.5969 10
      vertex -1.15378e-15 18.5969 -8.93957e-32
    endloop
  endfacet
  facet normal 0.707107 0.707107 4.32978e-17
    outer loop
      vertex 11.0969 7.5 10
      vertex 11.0969 7.5 6.7949e-16
      vertex -1.7661e-15 18.5969 10
    endloop
  endfacet
  facet normal 0.707107 0.707107 4.32978e-17
    outer loop
      vertex -1.7661e-15 18.5969 10
      vertex 11.0969 7.5 6.7949e-16
      vertex -1.15378e-15 18.5969 -8.93957e-32
    endloop
  endfacet
  facet normal 0 1 0
    outer loop
      vertex 11.0969 7.5 10
      vertex 16 7.5 10
      vertex 11.0969 7.5 6.7949e-16
    endloop
  endfacet
  facet normal 0 1 0
    outer loop
      vertex 11.0969 7.5 6.7949e-16
      vertex 16 7.5 10
      vertex 16 7.5 9.79717e-16
    endloop
  endfacet
  facet normal -1 0 -6.12323e-17
    outer loop
      vertex 16 7.5 10
      vertex 16 39 10
      vertex 16 7.5 9.79717e-16
    endloop
  endfacet
  facet normal -1 0 -6.12323e-17
    outer loop
      vertex 16 7.5 9.79717e-16
      vertex 16 39 10
      vertex 16 39 9.79717e-16
    endloop
  endfacet
  facet normal 0 1 0
    outer loop
      vertex 16 39 10
      vertex 21 39 10
      vertex 16 39 9.79717e-16
    endloop
  endfacet
  facet normal 0 1 0
    outer loop
      vertex 16 39 9.79717e-16
      vertex 21 39 10
      vertex 21 39 1.28588e-15
    endloop
  endfacet
  facet normal 1 0 6.12323e-17
    outer loop
      vertex 21 39 10
      vertex 21 34 10
      vertex 21 34 1.28588e-15
    endloop
  endfacet
  facet normal 1 0 6.12323e-17
    outer loop
      vertex 21 39 1.28588e-15
      vertex 21 39 10
      vertex 21 34 1.28588e-15
    endloop
  endfacet
  facet normal 0 -1 0
    outer loop
      vertex 19.25 34 1.17872e-15
      vertex 21 34 1.28588e-15
      vertex 21 34 10
    endloop
  endfacet
  facet normal 0 -1 0
    outer loop
      vertex 19.25 34 10
      vertex 19.25 34 1.17872e-15
      vertex 21 34 10
    endloop
  endfacet
  facet normal -1 0 -6.12323e-17
    outer loop
      vertex 19.25 36.5 1.17872e-15
      vertex 19.25 34 1.17872e-15
      vertex 19.25 36.5 10
    endloop
  endfacet
  facet normal -1 0 -6.12323e-17
    outer loop
      vertex 19.25 36.5 10
      vertex 19.25 34 1.17872e-15
      vertex 19.25 34 10
    endloop
  endfacet
  facet normal 0 -1 0
    outer loop
      vertex 17.75 36.5 1.08687e-15
      vertex 19.25 36.5 1.17872e-15
      vertex 19.25 36.5 10
    endloop
  endfacet
  facet normal 0 -1 0
    outer loop
      vertex 17.75 36.5 10
      vertex 17.75 36.5 1.08687e-15
      vertex 19.25 36.5 10
    endloop
  endfacet
  facet normal 1 0 6.12323e-17
    outer loop
      vertex 17.75 -36.5 1.08687e-15
      vertex 17.75 36.5 1.08687e-15
      vertex 17.75 36.5 10
    endloop
  endfacet
  facet normal 1 0 6.12323e-17
    outer loop
      vertex 17.75 -36.5 10
      vertex 17.75 -36.5 1.08687e-15
      vertex 17.75 36.5 10
    endloop
  endfacet
  facet normal 0 1 0
    outer loop
      vertex 19.25 -36.5 1.17872e-15
      vertex 17.75 -36.5 1.08687e-15
      vertex 19.25 -36.5 10
    endloop
  endfacet
  facet normal 0 1 0
    outer loop
      vertex 19.25 -36.5 10
      vertex 17.75 -36.5 1.08687e-15
      vertex 17.75 -36.5 10
    endloop
  endfacet
  facet normal -1 0 -6.12323e-17
    outer loop
      vertex 19.25 -34 1.17872e-15
      vertex 19.25 -36.5 1.17872e-15
      vertex 19.25 -34 10
    endloop
  endfacet
  facet normal -1 0 -6.12323e-17
    outer loop
      vertex 19.25 -34 10
      vertex 19.25 -36.5 1.17872e-15
      vertex 19.25 -36.5 10
    endloop
  endfacet
  facet normal 0 1 0
    outer loop
      vertex 21 -34 1.28588e-15
      vertex 19.25 -34 1.17872e-15
      vertex 21 -34 10
    endloop
  endfacet
  facet normal 0 1 0
    outer loop
      vertex 21 -34 10
      vertex 19.25 -34 1.17872e-15
      vertex 19.25 -34 10
    endloop
  endfacet
  facet normal 1 0 6.12323e-17
    outer loop
      vertex 21 -34 10
      vertex 21 -39 10
      vertex 21 -39 1.28588e-15
    endloop
  endfacet
  facet normal 1 0 6.12323e-17
    outer loop
      vertex 21 -34 1.28588e-15
      vertex 21 -34 10
      vertex 21 -39 1.28588e-15
    endloop
  endfacet
  facet normal 6.12323e-17 0 -1
    outer loop
      vertex 1.48855e-15 -15.0614 7.24004e-32
      vertex 1.7661e-15 -18.5969 8.93957e-32
      vertex -6.76777 -11.8291 -4.14406e-16
    endloop
  endfacet
  facet normal 6.12323e-17 0 -1
    outer loop
      vertex 19.25 36.5 1.17872e-15
      vertex 21 34 1.28588e-15
      vertex 19.25 34 1.17872e-15
    endloop
  endfacet
  facet normal 6.12323e-17 0 -1
    outer loop
      vertex 11.0969 -7.5 6.7949e-16
      vertex 1.7661e-15 -18.5969 8.93957e-32
      vertex 1.48855e-15 -15.0614 7.24004e-32
    endloop
  endfacet
  facet normal 6.12323e-17 0 -1
    outer loop
      vertex 15.0614 1.18239e-15 9.22243e-16
      vertex 11.0969 -7.5 6.7949e-16
      vertex 1.48855e-15 -15.0614 7.24004e-32
    endloop
  endfacet
  facet normal 6.12323e-17 0 -1
    outer loop
      vertex 16 -7.5 9.79717e-16
      vertex 11.0969 -7.5 6.7949e-16
      vertex 15.0614 1.18239e-15 9.22243e-16
    endloop
  endfacet
  facet normal 6.12323e-17 0 -1
    outer loop
      vertex 11.0969 7.5 6.7949e-16
      vertex 15.0614 1.18239e-15 9.22243e-16
      vertex -1.15378e-15 18.5969 -8.93957e-32
    endloop
  endfacet
  facet normal 6.12323e-17 0 -1
    outer loop
      vertex -1.15378e-15 18.5969 -8.93957e-32
      vertex -8.76226e-16 15.0614 -7.24004e-32
      vertex -8.76777 9.82914 -5.36871e-16
    endloop
  endfacet
  facet normal 6.12323e-17 0 -1
    outer loop
      vertex -8.76226e-16 15.0614 -7.24004e-32
      vertex -7 8.06137 -4.28626e-16
      vertex -8.76777 9.82914 -5.36871e-16
    endloop
  endfacet
  facet normal 6.12323e-17 0 -1
    outer loop
      vertex 15.0614 1.18239e-15 9.22243e-16
      vertex -8.76226e-16 15.0614 -7.24004e-32
      vertex -1.15378e-15 18.5969 -8.93957e-32
    endloop
  endfacet
  facet normal 6.12323e-17 0 -1
    outer loop
      vertex 15.0614 1.18239e-15 9.22243e-16
      vertex 11.0969 7.5 6.7949e-16
      vertex 16 7.5 9.79717e-16
    endloop
  endfacet
  facet normal 6.12323e-17 0 -1
    outer loop
      vertex 19.25 36.5 1.17872e-15
      vertex 16 39 9.79717e-16
      vertex 21 39 1.28588e-15
    endloop
  endfacet
  facet normal 6.12323e-17 0 -1
    outer loop
      vertex 17.75 -36.5 1.08687e-15
      vertex 16 -7.5 9.79717e-16
      vertex 16 7.5 9.79717e-16
    endloop
  endfacet
  facet normal 6.12323e-17 0 -1
    outer loop
      vertex 16 -7.5 9.79717e-16
      vertex 15.0614 1.18239e-15 9.22243e-16
      vertex 16 7.5 9.79717e-16
    endloop
  endfacet
  facet normal 6.12323e-17 0 -1
    outer loop
      vertex 21 34 1.28588e-15
      vertex 19.25 36.5 1.17872e-15
      vertex 21 39 1.28588e-15
    endloop
  endfacet
  facet normal 6.12323e-17 0 -1
    outer loop
      vertex 17.75 -36.5 1.08687e-15
      vertex 16 7.5 9.79717e-16
      vertex 16 39 9.79717e-16
    endloop
  endfacet
  facet normal 6.12323e-17 0 -1
    outer loop
      vertex 16 -39 9.79717e-16
      vertex 16 -7.5 9.79717e-16
      vertex 17.75 -36.5 1.08687e-15
    endloop
  endfacet
  facet normal 6.12323e-17 0 -1
    outer loop
      vertex 16 -39 9.79717e-16
      vertex 17.75 -36.5 1.08687e-15
      vertex 21 -39 1.28588e-15
    endloop
  endfacet
  facet normal 6.12323e-17 0 -1
    outer loop
      vertex 21 -34 1.28588e-15
      vertex 21 -39 1.28588e-15
      vertex 19.25 -34 1.17872e-15
    endloop
  endfacet
  facet normal 6.12323e-17 0 -1
    outer loop
      vertex 17.75 -36.5 1.08687e-15
      vertex 19.25 -36.5 1.17872e-15
      vertex 21 -39 1.28588e-15
    endloop
  endfacet
  facet normal 6.12323e-17 0 -1
    outer loop
      vertex 19.25 -36.5 1.17872e-15
      vertex 19.25 -34 1.17872e-15
      vertex 21 -39 1.28588e-15
    endloop
  endfacet
  facet normal 6.12323e-17 0 -1
    outer loop
      vertex 1.48855e-15 -15.0614 7.24004e-32
      vertex -6.76777 -11.8291 -4.14406e-16
      vertex -5 -10.0614 -3.06162e-16
    endloop
  endfacet
  facet normal 6.12323e-17 0 -1
    outer loop
      vertex 17.75 36.5 1.08687e-15
      vertex 16 39 9.79717e-16
      vertex 19.25 36.5 1.17872e-15
    endloop
  endfacet
  facet normal 6.12323e-17 0 -1
    outer loop
      vertex 17.75 -36.5 1.08687e-15
      vertex 16 39 9.79717e-16
      vertex 17.75 36.5 1.08687e-15
    endloop
  endfacet
endsolid OpenSCAD_Model
